<svg xmlns="http://www.w3.org/2000/svg" width="43.511" height="48.345" viewBox="0 0 43.511 48.345">
  <g id="exit-svgrepo-com" transform="translate(-3 -2)">
    <path id="Caminho_27" data-name="Caminho 27" d="M10.71,2.988C9,4.5,9,7.276,9,12.821v26.7c0,5.545,0,8.317,1.71,9.833s4.323,1.06,9.549.148l5.629-.982c5.788-1.01,8.682-1.514,10.4-3.638s1.718-5.193,1.718-11.334V18.793c0-6.141,0-9.211-1.718-11.334s-4.613-2.628-10.4-3.637L20.259,2.84C15.032,1.928,12.419,1.472,10.71,2.988Zm5.542,18.758a1.857,1.857,0,0,1,1.813,1.9V28.7a1.815,1.815,0,1,1-3.626,0V23.643A1.857,1.857,0,0,1,16.252,21.746Z" transform="translate(8.504 0)" fill="#36aaf6" fill-rule="evenodd"/>
    <path id="Caminho_28" data-name="Caminho 28" d="M13.992,4.5c-4.975.007-7.569.117-9.222,1.769C3,8.039,3,10.888,3,16.586V28.672c0,5.7,0,8.546,1.77,10.316,1.653,1.653,4.246,1.762,9.222,1.769-.114-1.507-.114-3.249-.114-5.131v-26C13.877,7.749,13.877,6.007,13.992,4.5Z" transform="translate(0 3.543)" fill="#36aaf6"/>
  </g>
</svg>
