<svg id="exit-svgrepo-com" xmlns="http://www.w3.org/2000/svg" width="29.978" height="33.308" viewBox="0 0 29.978 33.308">
  <path id="Caminho_27" data-name="Caminho 27" d="M10.178,2.681C9,3.725,9,5.635,9,9.455v18.4c0,3.82,0,5.73,1.178,6.774s2.978.73,6.579.1l3.878-.676c3.988-.7,5.982-1.043,7.166-2.506s1.184-3.578,1.184-7.809V13.57c0-4.231,0-6.346-1.184-7.809s-3.178-1.81-7.166-2.506l-3.878-.676C13.156,1.95,11.356,1.636,10.178,2.681ZM14,15.6a1.279,1.279,0,0,1,1.249,1.307V20.4a1.25,1.25,0,1,1-2.5,0V16.911A1.279,1.279,0,0,1,14,15.6Z" transform="translate(0.993 -2)" fill="#fff" fill-rule="evenodd"/>
  <path id="Caminho_28" data-name="Caminho 28" d="M10.573,4.5c-3.428,0-5.215.08-6.353,1.219C3,6.939,3,8.9,3,12.827v8.327c0,3.925,0,5.888,1.219,7.108,1.139,1.139,2.926,1.214,6.353,1.219-.079-1.038-.079-2.238-.079-3.535V8.035C10.494,6.738,10.494,5.538,10.573,4.5Z" transform="translate(-3 -0.336)" fill="#fff"/>
</svg>
