<svg xmlns="http://www.w3.org/2000/svg" width="107" height="106" viewBox="0 0 107 106">
  <g id="Grupo_33" data-name="Grupo 33" transform="translate(-631 -315)">
    <rect id="Retângulo_15" data-name="Retângulo 15" width="107" height="106" rx="22" transform="translate(631 315)" fill="#a0d9ff"/>
    <path id="Caminho_29" data-name="Caminho 29" d="M9.063,0A9.063,9.063,0,1,1,0,9.063,9.063,9.063,0,0,1,9.063,0Z" transform="translate(645.582 328.348)" fill="#fff"/>
    <path id="Caminho_32" data-name="Caminho 32" d="M9.063,0A9.063,9.063,0,1,1,0,9.063,9.063,9.063,0,0,1,9.063,0Z" transform="translate(645.582 356.296)" fill="#fff"/>
    <path id="Caminho_35" data-name="Caminho 35" d="M9.063,0A9.063,9.063,0,1,1,0,9.063,9.063,9.063,0,0,1,9.063,0Z" transform="translate(645.582 384.243)" fill="#fff"/>
    <path id="Caminho_29-2" data-name="Caminho 29" d="M9.063,0A9.063,9.063,0,1,1,0,9.063,9.063,9.063,0,0,1,9.063,0Z" transform="translate(676.204 328.348)" fill="#fff"/>
    <path id="Caminho_31" data-name="Caminho 31" d="M9.063,0A9.063,9.063,0,1,1,0,9.063,9.063,9.063,0,0,1,9.063,0Z" transform="translate(676.204 356.296)" fill="#fff"/>
    <path id="Caminho_34" data-name="Caminho 34" d="M9.063,0A9.063,9.063,0,1,1,0,9.063,9.063,9.063,0,0,1,9.063,0Z" transform="translate(676.204 384.243)" fill="#fff"/>
    <path id="Caminho_29-3" data-name="Caminho 29" d="M9.063,0A9.063,9.063,0,1,1,0,9.063,9.063,9.063,0,0,1,9.063,0Z" transform="translate(706.096 328.348)" fill="#fff"/>
    <path id="Caminho_30" data-name="Caminho 30" d="M9.063,0A9.063,9.063,0,1,1,0,9.063,9.063,9.063,0,0,1,9.063,0Z" transform="translate(706.096 356.296)" fill="#fff"/>
    <path id="Caminho_33" data-name="Caminho 33" d="M9.063,0A9.063,9.063,0,1,1,0,9.063,9.063,9.063,0,0,1,9.063,0Z" transform="translate(706.096 384.243)" fill="#fff"/>
  </g>
</svg>
