<?xml version="1.0" encoding="UTF-8"?>
<svg id="Camada_1" data-name="Camada 1" xmlns="http://www.w3.org/2000/svg" viewBox="0 0 58 265">
  <defs>
    <style>
      .cls-1, .cls-2 {
        fill: #fff;
      }

      .cls-3 {
        fill: #e09c5a;
      }

      .cls-2 {
        opacity: .4;
      }

      .cls-4 {
        fill: #f4db62;
      }

      .cls-5 {
        fill: gray;
      }
    </style>
  </defs>
  <path class="cls-3" d="M29,68.68h0c-7.23,0-23.42-5.86-23.42-13.1L29,8.68h0l23.42,46.9c0,7.23-16.19,13.1-23.42,13.1Z"/>
  <g>
    <path class="cls-4" d="M1.5,43.68h55v194.23c0,15.18-12.32,27.5-27.5,27.5h0c-15.18,0-27.5-12.32-27.5-27.5V43.68h0Z" transform="translate(58 309.08) rotate(180)"/>
    <rect class="cls-2" x="46.75" y="68.68" width="4" height="66" rx="2" ry="2" transform="translate(97.5 203.35) rotate(180)"/>
    <rect class="cls-2" x="46.75" y="138" width="4" height="17" rx="2" ry="2" transform="translate(97.5 293) rotate(180)"/>
    <g>
      <line class="cls-1" x1="29" y1="10.68" x2="29" y2=".41"/>
      <polygon class="cls-5" points="29 .41 29 .41 30 10.68 28 10.68 29 .41"/>
    </g>
  </g>
</svg>